<svg xmlns="http://www.w3.org/2000/svg" width="512" height="512" viewBox="0 0 512 512" fill="none">
    <defs>
      <linearGradient id="g" x1="96" y1="96" x2="416" y2="416" gradientUnits="userSpaceOnUse">
        <stop stop-color="#1EE7FF"/>
        <stop offset="0.55" stop-color="#0C7BFF"/>
        <stop offset="1" stop-color="#F2A43B"/>
      </linearGradient>
      <linearGradient id="g2" x1="120" y1="80" x2="360" y2="420" gradientUnits="userSpaceOnUse">
        <stop stop-color="#CFE5FF" stop-opacity="0.95"/>
        <stop offset="1" stop-color="#FFD98A" stop-opacity="0.7"/>
      </linearGradient>
      <filter id="glow" x="-40%" y="-40%" width="180%" height="180%">
        <feGaussianBlur stdDeviation="9" result="b"/>
        <feMerge>
          <feMergeNode in="b"/>
          <feMergeNode in="SourceGraphic"/>
        </feMerge>
      </filter>
      <filter id="soft" x="-30%" y="-30%" width="160%" height="160%">
        <feGaussianBlur stdDeviation="4"/>
      </filter>
      <style>
        .s{stroke:url(#g); stroke-width:20; stroke-linecap:round; stroke-linejoin:round; fill:none;}
        .s2{stroke:url(#g2); stroke-width:14; stroke-linecap:round; stroke-linejoin:round; fill:none;}
        .f{fill:url(#g);}
        .f2{fill:url(#g2);}
        .gl{filter:url(#glow);}
      </style>
    </defs>
    <title>asesoria_legal</title>
    <g class="gl"><path class="s" d="M256 118 L256 330"/><line class="s" x1="176" y1="172" x2="336" y2="172"/><path class="s2" d="M176 172 L144 234 L208 234 Z"/><path class="s2" d="M336 172 L304 234 L368 234 Z"/><path class="s2" d="M200 352 L312 352"/><path class="s2" d="M224 352 Q256 292 288 352"/><path class="f2" d="M256 90 L278 118 L256 146 L234 118 Z"/><path class="s" d="M256 206 C304 206 340 222 340 222 V280 C340 334 302 378 256 404 C210 378 172 334 172 280 V222 S208 206 256 206 Z"/></g>
    </svg>