<svg xmlns="http://www.w3.org/2000/svg" width="512" height="512" viewBox="0 0 512 512" fill="none">
    <defs>
      <linearGradient id="g" x1="96" y1="96" x2="416" y2="416" gradientUnits="userSpaceOnUse">
        <stop stop-color="#1EE7FF"/>
        <stop offset="0.55" stop-color="#0C7BFF"/>
        <stop offset="1" stop-color="#8A5FFF"/>
      </linearGradient>
      <linearGradient id="g2" x1="120" y1="80" x2="360" y2="420" gradientUnits="userSpaceOnUse">
        <stop stop-color="#CFE5FF" stop-opacity="0.95"/>
        <stop offset="1" stop-color="#1EE7FF" stop-opacity="0.7"/>
      </linearGradient>
      <filter id="glow" x="-40%" y="-40%" width="180%" height="180%">
        <feGaussianBlur stdDeviation="9" result="b"/>
        <feMerge>
          <feMergeNode in="b"/>
          <feMergeNode in="SourceGraphic"/>
        </feMerge>
      </filter>
      <filter id="soft" x="-30%" y="-30%" width="160%" height="160%">
        <feGaussianBlur stdDeviation="4"/>
      </filter>
      <style>
        .s{stroke:url(#g); stroke-width:20; stroke-linecap:round; stroke-linejoin:round; fill:none;}
        .s2{stroke:url(#g2); stroke-width:14; stroke-linecap:round; stroke-linejoin:round; fill:none;}
        .f{fill:url(#g);}
        .f2{fill:url(#g2);}
        .gl{filter:url(#glow);}
      </style>
    </defs>
    <title>asistente_virtual_ia</title>
    <g class="gl"><path class="s" d="M124 160 H388 Q420 160 420 192 V294 Q420 326 388 326 H250 L192 374 V326 H124 Q92 326 92 294 V192 Q92 160 124 160 Z"/><rect class="s2" x="170" y="188" width="168" height="104" rx="28"/><circle class="f2" cx="216" cy="238" r="10"/><circle class="f2" cx="292" cy="238" r="10"/><path class="s2" d="M216 268 Q254 286 292 268"/><line class="s2" x1="254" y1="160" x2="254" y2="188"/><circle class="f" cx="254" cy="140" r="10"/><path class="s2" d="M388 210 L432 188"/><path class="s2" d="M392 270 L438 280"/></g>
    </svg>