<svg xmlns="http://www.w3.org/2000/svg" width="512" height="512" viewBox="0 0 512 512" fill="none">
    <defs>
      <linearGradient id="g" x1="96" y1="96" x2="416" y2="416" gradientUnits="userSpaceOnUse">
        <stop stop-color="#1EE7FF"/>
        <stop offset="0.55" stop-color="#0C7BFF"/>
        <stop offset="1" stop-color="#7A5CFF"/>
      </linearGradient>
      <linearGradient id="g2" x1="120" y1="80" x2="360" y2="420" gradientUnits="userSpaceOnUse">
        <stop stop-color="#CFE5FF" stop-opacity="0.95"/>
        <stop offset="1" stop-color="#1EE7FF" stop-opacity="0.7"/>
      </linearGradient>
      <filter id="glow" x="-40%" y="-40%" width="180%" height="180%">
        <feGaussianBlur stdDeviation="9" result="b"/>
        <feMerge>
          <feMergeNode in="b"/>
          <feMergeNode in="SourceGraphic"/>
        </feMerge>
      </filter>
      <filter id="soft" x="-30%" y="-30%" width="160%" height="160%">
        <feGaussianBlur stdDeviation="4"/>
      </filter>
      <style>
        .s{stroke:url(#g); stroke-width:20; stroke-linecap:round; stroke-linejoin:round; fill:none;}
        .s2{stroke:url(#g2); stroke-width:14; stroke-linecap:round; stroke-linejoin:round; fill:none;}
        .f{fill:url(#g);}
        .f2{fill:url(#g2);}
        .gl{filter:url(#glow);}
      </style>
    </defs>
    <title>automatizacion_marketing</title>
    <g class="gl"><circle class="s" cx="182" cy="250" r="54"/><circle class="s2" cx="182" cy="250" r="18"/><line class="s2" x1="182" y1="168" x2="182" y2="138"/><line class="s2" x1="182" y1="332" x2="182" y2="362"/><line class="s2" x1="100" y1="250" x2="70" y2="250"/><line class="s2" x1="264" y1="250" x2="294" y2="250"/><line class="s2" x1="124" y1="192" x2="102" y2="170"/><line class="s2" x1="240" y1="308" x2="262" y2="330"/><line class="s2" x1="124" y1="308" x2="102" y2="330"/><line class="s2" x1="240" y1="192" x2="262" y2="170"/><polygon class="s" points="278,220 374,178 374,322 278,280"/><rect class="s2" x="244" y="228" width="40" height="44" rx="10"/><line class="s2" x1="292" y1="304" x2="314" y2="356"/><line class="s2" x1="334" y1="196" x2="376" y2="168"/><line class="s2" x1="334" y1="304" x2="382" y2="326"/></g>
    </svg>