<svg xmlns="http://www.w3.org/2000/svg" width="512" height="512" viewBox="0 0 512 512" fill="none">
    <defs>
      <linearGradient id="g" x1="96" y1="96" x2="416" y2="416" gradientUnits="userSpaceOnUse">
        <stop stop-color="#1EE7FF"/>
        <stop offset="0.55" stop-color="#0C7BFF"/>
        <stop offset="1" stop-color="#3B79FF"/>
      </linearGradient>
      <linearGradient id="g2" x1="120" y1="80" x2="360" y2="420" gradientUnits="userSpaceOnUse">
        <stop stop-color="#CFE5FF" stop-opacity="0.95"/>
        <stop offset="1" stop-color="#1EE7FF" stop-opacity="0.7"/>
      </linearGradient>
      <filter id="glow" x="-40%" y="-40%" width="180%" height="180%">
        <feGaussianBlur stdDeviation="9" result="b"/>
        <feMerge>
          <feMergeNode in="b"/>
          <feMergeNode in="SourceGraphic"/>
        </feMerge>
      </filter>
      <filter id="soft" x="-30%" y="-30%" width="160%" height="160%">
        <feGaussianBlur stdDeviation="4"/>
      </filter>
      <style>
        .s{stroke:url(#g); stroke-width:20; stroke-linecap:round; stroke-linejoin:round; fill:none;}
        .s2{stroke:url(#g2); stroke-width:14; stroke-linecap:round; stroke-linejoin:round; fill:none;}
        .f{fill:url(#g);}
        .f2{fill:url(#g2);}
        .gl{filter:url(#glow);}
      </style>
    </defs>
    <title>campanas_redes_sociales</title>
    <g class="gl"><circle class="s" cx="164" cy="166" r="26"/><circle class="s" cx="338" cy="166" r="26"/><circle class="s" cx="124" cy="322" r="26"/><circle class="s" cx="378" cy="322" r="26"/><line class="s2" x1="190" y1="166" x2="312" y2="166"/><line class="s2" x1="154" y1="190" x2="134" y2="296"/><line class="s2" x1="348" y1="190" x2="368" y2="296"/><line class="s2" x1="150" y1="322" x2="352" y2="322"/><polygon class="s" points="196,210 286,184 286,304 196,278"/><rect class="s2" x="168" y="222" width="36" height="42" rx="10"/><line class="s2" x1="228" y1="304" x2="246" y2="350"/><line class="s2" x1="318" y1="212" x2="358" y2="188"/><line class="s2" x1="318" y1="298" x2="366" y2="316"/></g>
    </svg>